<svg xmlns="http://www.w3.org/2000/svg" width="375" viewBox="0 0 375 375" height="375" version="1.0"><defs><clipPath id="a"><path d="M 127.992188 80.929688 L 247.242188 80.929688 L 247.242188 200.179688 L 127.992188 200.179688 Z M 127.992188 80.929688"/></clipPath></defs><g clip-path="url(#a)"><path fill="#008000" d="M 238.875 164.382812 C 241.257812 165.019531 243.734375 163.59375 244.371094 161.210938 L 247.089844 151.046875 C 247.734375 148.664062 246.300781 146.183594 243.921875 145.546875 C 238.90625 143.941406 235.269531 139.59375 234.582031 134.375 C 233.894531 129.152344 236.28125 124.011719 240.710938 121.160156 C 242.84375 119.925781 243.589844 117.167969 242.355469 115.027344 L 237.09375 105.914062 C 235.859375 103.773438 233.101562 103.035156 230.960938 104.269531 C 226.28125 106.679688 220.632812 106.171875 216.457031 102.972656 C 212.285156 99.769531 210.328125 94.441406 211.449219 89.300781 C 212.085938 86.917969 210.664062 84.4375 208.273438 83.800781 L 198.113281 81.078125 C 195.730469 80.441406 193.253906 81.863281 192.617188 84.246094 C 191.011719 89.261719 186.664062 92.898438 181.441406 93.585938 C 176.226562 94.273438 171.078125 91.882812 168.230469 87.457031 C 166.996094 85.316406 164.238281 84.578125 162.097656 85.8125 L 152.984375 91.074219 C 150.847656 92.308594 150.105469 95.066406 151.339844 97.203125 C 153.75 101.882812 153.246094 107.53125 150.042969 111.710938 C 146.839844 115.882812 141.511719 117.835938 136.367188 116.71875 C 133.984375 116.074219 131.507812 117.503906 130.871094 119.886719 L 128.144531 130.054688 C 127.507812 132.4375 128.933594 134.914062 131.320312 135.550781 C 136.335938 137.15625 139.972656 141.507812 140.660156 146.726562 C 141.347656 151.941406 138.960938 157.089844 134.53125 159.9375 C 132.390625 161.171875 131.652344 163.929688 132.886719 166.066406 L 138.148438 175.179688 C 139.382812 177.320312 142.140625 178.058594 144.277344 176.824219 C 148.957031 174.414062 154.605469 174.914062 158.785156 178.117188 C 162.957031 181.324219 164.914062 186.652344 163.792969 191.792969 C 163.15625 194.175781 164.578125 196.65625 166.960938 197.289062 L 177.128906 200.015625 C 179.511719 200.652344 181.988281 199.226562 182.625 196.839844 C 184.230469 191.828125 188.585938 188.1875 193.800781 187.503906 C 199.015625 186.816406 204.164062 189.203125 207.007812 193.628906 C 208.242188 195.769531 211 196.507812 213.140625 195.273438 L 222.253906 190.015625 C 224.394531 188.78125 225.132812 186.019531 223.898438 183.886719 C 221.488281 179.207031 221.996094 173.558594 225.191406 169.378906 C 228.398438 165.203125 233.726562 163.25 238.867188 164.371094 Z M 153.828125 131.5 L 153.90625 131.195312 L 153.953125 131.046875 L 153.996094 130.894531 L 154.042969 130.742188 L 154.085938 130.589844 L 154.132812 130.4375 L 154.175781 130.285156 L 154.222656 130.132812 L 154.265625 129.980469 L 154.3125 129.828125 L 154.363281 129.683594 L 154.414062 129.535156 L 154.464844 129.390625 L 154.515625 129.242188 L 154.566406 129.097656 L 154.617188 128.949219 L 154.671875 128.804688 L 154.722656 128.65625 L 154.773438 128.511719 L 154.832031 128.363281 L 154.886719 128.21875 L 154.941406 128.070312 L 155 127.925781 C 155.039062 127.828125 155.074219 127.734375 155.113281 127.636719 L 155.167969 127.492188 L 155.226562 127.351562 L 155.335938 127.070312 L 155.394531 126.929688 C 155.433594 126.832031 155.472656 126.738281 155.519531 126.644531 L 155.578125 126.503906 C 155.617188 126.410156 155.664062 126.320312 155.703125 126.222656 L 155.828125 125.941406 L 155.894531 125.800781 C 155.933594 125.710938 155.980469 125.617188 156.023438 125.527344 L 156.09375 125.390625 L 156.160156 125.253906 L 156.226562 125.121094 L 156.296875 124.984375 L 156.363281 124.851562 L 156.496094 124.578125 L 156.570312 124.445312 L 156.636719 124.308594 C 156.710938 124.175781 156.78125 124.039062 156.851562 123.910156 C 156.902344 123.820312 156.949219 123.730469 157 123.644531 L 157.070312 123.507812 L 157.144531 123.378906 C 157.195312 123.289062 157.246094 123.207031 157.292969 123.113281 L 157.605469 122.597656 L 157.6875 122.46875 C 159.03125 120.242188 160.609375 118.191406 162.378906 116.355469 C 166.96875 111.585938 172.835938 108.195312 179.261719 106.605469 C 181.742188 105.992188 184.304688 105.648438 186.90625 105.597656 C 190.128906 105.535156 193.410156 105.914062 196.675781 106.792969 C 199.945312 107.664062 202.980469 108.976562 205.738281 110.644531 C 207.964844 111.992188 210.015625 113.570312 211.851562 115.335938 C 216.621094 119.925781 220.011719 125.796875 221.601562 132.222656 C 222.214844 134.699219 222.558594 137.261719 222.609375 139.863281 L 222.609375 141.082031 L 222.601562 141.234375 L 222.597656 141.539062 C 222.589844 141.691406 222.585938 141.84375 222.578125 141.992188 L 222.570312 142.296875 L 222.5625 142.449219 L 222.539062 142.753906 L 222.53125 142.90625 L 222.496094 143.363281 C 222.484375 143.464844 222.480469 143.566406 222.46875 143.667969 L 222.449219 143.820312 L 222.433594 143.972656 L 222.417969 144.121094 C 222.40625 144.222656 222.394531 144.324219 222.382812 144.425781 L 222.367188 144.578125 L 222.289062 145.1875 L 222.21875 145.644531 C 222.203125 145.746094 222.1875 145.847656 222.175781 145.949219 L 222.128906 146.253906 L 222.101562 146.402344 L 222.046875 146.707031 L 222.015625 146.859375 L 221.933594 147.316406 L 221.871094 147.621094 L 221.835938 147.773438 L 221.804688 147.925781 L 221.734375 148.230469 L 221.703125 148.382812 L 221.667969 148.53125 L 221.632812 148.683594 L 221.320312 149.902344 L 221.234375 150.207031 L 221.1875 150.359375 L 221.144531 150.511719 L 221.097656 150.660156 L 221.054688 150.8125 L 221.007812 150.964844 L 220.964844 151.113281 L 220.914062 151.265625 L 220.867188 151.410156 L 220.816406 151.558594 L 220.765625 151.703125 L 220.714844 151.855469 L 220.664062 152.003906 L 220.613281 152.148438 L 220.5625 152.296875 L 220.511719 152.441406 L 220.457031 152.589844 L 220.398438 152.734375 L 220.34375 152.882812 L 220.289062 153.027344 L 220.230469 153.175781 C 220.191406 153.269531 220.15625 153.367188 220.117188 153.460938 L 220.0625 153.601562 L 220.007812 153.75 L 219.949219 153.894531 L 219.894531 154.035156 L 219.835938 154.175781 L 219.773438 154.316406 L 219.714844 154.457031 L 219.652344 154.597656 C 219.613281 154.6875 219.574219 154.785156 219.527344 154.878906 L 219.402344 155.160156 L 219.339844 155.304688 C 219.296875 155.394531 219.25 155.488281 219.210938 155.578125 L 219.144531 155.71875 L 219.078125 155.855469 L 219.007812 155.988281 L 218.875 156.261719 L 218.804688 156.394531 L 218.738281 156.53125 L 218.664062 156.664062 L 218.597656 156.800781 C 218.53125 156.9375 218.457031 157.070312 218.382812 157.207031 C 218.332031 157.296875 218.289062 157.386719 218.238281 157.472656 L 218.089844 157.730469 C 218.039062 157.820312 217.988281 157.90625 217.945312 157.996094 L 217.867188 158.125 L 217.785156 158.253906 L 217.628906 158.511719 L 217.550781 158.644531 C 216.203125 160.867188 214.628906 162.910156 212.859375 164.753906 C 208.269531 169.523438 202.398438 172.914062 195.972656 174.503906 C 193.496094 175.117188 190.9375 175.460938 188.335938 175.511719 C 185.113281 175.578125 181.832031 175.195312 178.566406 174.316406 C 175.296875 173.4375 172.261719 172.132812 169.503906 170.464844 C 167.277344 169.117188 165.226562 167.542969 163.390625 165.773438 C 158.621094 161.183594 155.230469 155.3125 153.640625 148.886719 C 153.027344 146.410156 152.683594 143.847656 152.632812 141.246094 L 152.632812 140.484375 C 152.632812 140.382812 152.632812 140.28125 152.632812 140.179688 L 152.632812 140.027344 L 152.640625 139.875 C 152.640625 139.773438 152.640625 139.671875 152.644531 139.570312 C 152.652344 139.421875 152.65625 139.269531 152.664062 139.117188 L 152.671875 138.8125 L 152.683594 138.660156 L 152.691406 138.507812 L 152.703125 138.355469 L 152.710938 138.203125 L 152.746094 137.746094 C 152.757812 137.644531 152.761719 137.542969 152.773438 137.441406 L 152.785156 137.292969 L 152.804688 137.140625 L 152.820312 136.988281 C 152.832031 136.886719 152.84375 136.785156 152.855469 136.683594 L 152.871094 136.53125 C 152.882812 136.429688 152.894531 136.328125 152.910156 136.226562 L 152.925781 136.074219 L 152.996094 135.617188 L 153.015625 135.464844 C 153.035156 135.363281 153.046875 135.261719 153.0625 135.164062 L 153.085938 135.011719 L 153.105469 134.859375 L 153.136719 134.707031 L 153.246094 134.097656 L 153.277344 133.945312 L 153.332031 133.640625 L 153.367188 133.488281 L 153.398438 133.335938 L 153.433594 133.183594 L 153.46875 133.035156 L 153.5 132.882812 L 153.535156 132.730469 L 153.574219 132.578125 L 153.609375 132.425781 L 153.84375 131.511719 Z M 153.828125 131.5" fill-rule="evenodd"/></g><path fill="#008000" d="M 204.921875 122.015625 L 208.015625 118.925781 C 204.546875 115.652344 200.242188 113.167969 195.316406 111.84375 C 179.460938 107.597656 163.160156 117.003906 158.910156 132.863281 C 158.515625 134.339844 158.234375 135.820312 158.070312 137.296875 C 162.300781 121.628906 178.421875 112.339844 194.105469 116.542969 C 198.179688 117.636719 201.824219 119.53125 204.917969 122.015625 Z M 204.921875 122.015625" fill-rule="evenodd"/><path fill="#008000" d="M 192.449219 143.148438 C 196.953125 140.789062 203.449219 133.5625 211.933594 121.46875 C 199.191406 128.363281 191.320312 133.894531 188.3125 138.070312 C 185.199219 142.398438 187.695312 145.636719 192.449219 143.148438 Z M 192.449219 143.148438" fill-rule="evenodd"/><g fill="#008000"><g><g><path d="M 0.515625 -21.09375 L 0.515625 -25.84375 L 14.5 -25.84375 L 14.5 -21.09375 L 10.3125 -21.09375 L 10.3125 0 L 4.71875 0 L 4.71875 -21.09375 Z M 0.515625 -21.09375" transform="translate(146.908 246.78)"/></g></g></g><g fill="#008000"><g><g><path d="M 17.21875 -20.96875 L 17.21875 -4.875 C 17.21875 -1.351562 15.566406 0.40625 12.265625 0.40625 L 6.953125 0.40625 C 3.648438 0.40625 2 -1.351562 2 -4.875 L 2 -20.96875 C 2 -24.488281 3.648438 -26.25 6.953125 -26.25 L 12.265625 -26.25 C 15.566406 -26.25 17.21875 -24.488281 17.21875 -20.96875 Z M 11.625 -4.234375 L 11.625 -21.65625 C 11.625 -21.863281 11.550781 -22.046875 11.40625 -22.203125 C 11.257812 -22.367188 11.082031 -22.453125 10.875 -22.453125 L 8.34375 -22.453125 C 8.132812 -22.453125 7.957031 -22.367188 7.8125 -22.203125 C 7.664062 -22.046875 7.59375 -21.863281 7.59375 -21.65625 L 7.59375 -4.234375 C 7.59375 -4.023438 7.664062 -3.835938 7.8125 -3.671875 C 7.957031 -3.515625 8.132812 -3.4375 8.34375 -3.4375 L 10.875 -3.4375 C 11.082031 -3.4375 11.257812 -3.515625 11.40625 -3.671875 C 11.550781 -3.835938 11.625 -4.023438 11.625 -4.234375 Z M 11.625 -4.234375" transform="translate(161.968 246.78)"/></g></g></g><g fill="#008000"><g><g><path d="M 12.265625 -25.84375 C 15.566406 -25.84375 17.21875 -24.085938 17.21875 -20.578125 L 17.21875 -5.28125 C 17.21875 -1.757812 15.566406 0 12.265625 0 L 2 0 L 2 -25.84375 Z M 11.625 -4.640625 L 11.625 -21.25 C 11.625 -21.46875 11.550781 -21.65625 11.40625 -21.8125 C 11.257812 -21.96875 11.082031 -22.046875 10.875 -22.046875 L 7.59375 -22.046875 L 7.59375 -3.828125 L 10.875 -3.828125 C 11.082031 -3.828125 11.257812 -3.90625 11.40625 -4.0625 C 11.550781 -4.226562 11.625 -4.421875 11.625 -4.640625 Z M 11.625 -4.640625" transform="translate(189.374 246.78)"/></g></g></g><g fill="#008000"><g><g><path d="M 17.21875 -20.96875 L 17.21875 -4.875 C 17.21875 -1.351562 15.566406 0.40625 12.265625 0.40625 L 6.953125 0.40625 C 3.648438 0.40625 2 -1.351562 2 -4.875 L 2 -20.96875 C 2 -24.488281 3.648438 -26.25 6.953125 -26.25 L 12.265625 -26.25 C 15.566406 -26.25 17.21875 -24.488281 17.21875 -20.96875 Z M 11.625 -4.234375 L 11.625 -21.65625 C 11.625 -21.863281 11.550781 -22.046875 11.40625 -22.203125 C 11.257812 -22.367188 11.082031 -22.453125 10.875 -22.453125 L 8.34375 -22.453125 C 8.132812 -22.453125 7.957031 -22.367188 7.8125 -22.203125 C 7.664062 -22.046875 7.59375 -21.863281 7.59375 -21.65625 L 7.59375 -4.234375 C 7.59375 -4.023438 7.664062 -3.835938 7.8125 -3.671875 C 7.957031 -3.515625 8.132812 -3.4375 8.34375 -3.4375 L 10.875 -3.4375 C 11.082031 -3.4375 11.257812 -3.515625 11.40625 -3.671875 C 11.550781 -3.835938 11.625 -4.023438 11.625 -4.234375 Z M 11.625 -4.234375" transform="translate(208.749 246.78)"/></g></g></g></svg>